<svg width="45" height="45" viewBox="0 0 45 45" fill="none" xmlns="http://www.w3.org/2000/svg">
<g id="Icon">
<rect id="icon span" width="45" height="45" rx="10" fill="#04A1DB"/>
<g id="Dashboard icon">
<path id="Vector" d="M15.3986 28.8615C15.1043 28.8615 14.822 28.9784 14.6139 29.1865C14.4057 29.3947 14.2888 29.677 14.2888 29.9713C14.2888 30.2656 14.4057 30.5479 14.6139 30.756C14.822 30.9642 15.1043 31.0811 15.3986 31.0811H30.9358C31.2301 31.0811 31.5124 30.9642 31.7205 30.756C31.9286 30.5479 32.0456 30.2656 32.0456 29.9713C32.0456 29.677 31.9286 29.3947 31.7205 29.1865C31.5124 28.9784 31.2301 28.8615 30.9358 28.8615H15.3986Z" fill="white"/>
<path id="Vector_2" fill-rule="evenodd" clip-rule="evenodd" d="M23.1673 7C22.1744 7 21.2985 7.32702 20.3869 7.84936C19.5139 8.34803 18.5195 9.08198 17.2958 9.98313L11.8548 13.9932C10.2863 15.1474 9.19428 15.9494 8.59647 17.1347C7.99866 18.3184 7.99866 19.6739 8.00014 21.6227V27.0932C8.00014 29.116 8.00014 30.7482 8.17327 32.0311C8.35083 33.3628 8.73556 34.4845 9.62488 35.3753C10.5157 36.2661 11.6373 36.6478 12.9691 36.8284C14.252 37 15.8841 37 17.9069 37H28.4278C30.4506 37 32.0827 37 33.3656 36.8284C34.6974 36.6478 35.819 36.2661 36.7098 35.3753C37.6006 34.4845 37.9824 33.3628 38.1629 32.0311C38.3346 30.7482 38.3346 29.116 38.3346 27.0932V21.6227C38.3346 19.6739 38.336 18.3184 37.7382 17.1347C37.1404 15.9509 36.0484 15.1474 34.4784 13.9917L29.0389 9.98313C27.8152 9.0805 26.8193 8.34803 25.9463 7.84936C25.0362 7.32702 24.1602 7 23.1673 7ZM18.5595 11.8091C19.8498 10.8591 20.7421 10.2036 21.4893 9.77449C22.2144 9.36017 22.7027 9.21959 23.1673 9.21959C23.6335 9.21959 24.1218 9.36165 24.8439 9.77449C25.5926 10.2036 26.4864 10.8591 27.7752 11.8091L32.9543 15.6268C34.8172 16.9985 35.4269 17.4824 35.7569 18.135C36.0868 18.7875 36.115 19.5658 36.115 21.8787V27.0118C36.115 29.1352 36.112 30.6165 35.9626 31.7351C35.8161 32.8212 35.5482 33.3954 35.1398 33.8053C34.7299 34.2152 34.1558 34.4815 33.0682 34.628C31.951 34.7774 30.4698 34.7804 28.3464 34.7804H17.9883C15.8649 34.7804 14.3822 34.7774 13.265 34.628C12.1789 34.4815 11.6048 34.2137 11.1949 33.8053C10.785 33.3954 10.5186 32.8212 10.3721 31.7337C10.2227 30.6165 10.2197 29.1352 10.2197 27.0118V21.8801C10.2197 19.5658 10.2478 18.7875 10.5778 18.1364C10.9078 17.4824 11.5175 16.997 13.3804 15.6253L18.5595 11.8091Z" fill="white"/>
</g>
</g>
</svg>
