<svg width="45" height="45" viewBox="0 0 45 45" fill="none" xmlns="http://www.w3.org/2000/svg">
<g id="Icon">
<rect id="icon span" width="45" height="45" rx="10" fill="#04A1DB"/>
<g id="help icon">
<path id="Vector" d="M23 26.975C22.55 26.975 22.25 26.675 22.25 26.225V22.925C22.25 22.475 22.55 22.175 23 22.175C24.65 22.175 26 20.825 26 19.175C26 17.525 24.65 16.175 23 16.175C21.35 16.175 20 17.525 20 19.175C20 19.625 19.7 19.925 19.25 19.925C18.8 19.925 18.5 19.625 18.5 19.175C18.5 16.7 20.525 14.675 23 14.675C25.475 14.675 27.5 16.7 27.5 19.175C27.5 21.425 25.85 23.225 23.75 23.6V26.225C23.75 26.675 23.45 26.975 23 26.975Z" fill="white"/>
<path id="Vector_2" d="M23 38C14.75 38 8 31.25 8 23C8 14.75 14.75 8 23 8C26.375 8 29.525 9.125 32.225 11.15C32.525 11.375 32.6 11.9 32.375 12.2C32.15 12.5 31.625 12.575 31.325 12.35C28.925 10.475 26 9.5 23 9.5C15.575 9.5 9.5 15.575 9.5 23C9.5 30.425 15.575 36.5 23 36.5C30.425 36.5 36.5 30.425 36.5 23C36.5 20.6 35.825 18.2 34.625 16.1C34.4 15.725 34.55 15.275 34.85 15.05C35.225 14.825 35.675 14.975 35.9 15.275C37.25 17.675 38 20.3 38 23C38 31.25 31.25 38 23 38Z" fill="white"/>
<path id="Vector_3" d="M23 32.375C22.55 32.375 22.25 32.075 22.25 31.625V29.6C22.25 29.15 22.55 28.85 23 28.85C23.45 28.85 23.75 29.15 23.75 29.6V31.625C23.75 32.075 23.45 32.375 23 32.375Z" fill="white"/>
</g>
</g>
</svg>
