<svg width="25" height="20" viewBox="0 0 25 20" fill="none" xmlns="http://www.w3.org/2000/svg">
<path id="Vector" d="M22.9167 0H2.08333C0.93316 0 0 0.93316 0 2.08333V2.77778H25V2.08333C25 0.93316 24.0668 0 22.9167 0ZM0 17.3611C0 18.5113 0.93316 19.4444 2.08333 19.4444H22.9167C24.0668 19.4444 25 18.5113 25 17.3611V4.16667H0V17.3611ZM15.2778 7.29167C15.2778 7.10069 15.434 6.94444 15.625 6.94444H21.875C22.066 6.94444 22.2222 7.10069 22.2222 7.29167V7.98611C22.2222 8.17708 22.066 8.33333 21.875 8.33333H15.625C15.434 8.33333 15.2778 8.17708 15.2778 7.98611V7.29167ZM15.2778 10.0694C15.2778 9.87847 15.434 9.72222 15.625 9.72222H21.875C22.066 9.72222 22.2222 9.87847 22.2222 10.0694V10.7639C22.2222 10.9549 22.066 11.1111 21.875 11.1111H15.625C15.434 11.1111 15.2778 10.9549 15.2778 10.7639V10.0694ZM15.2778 12.8472C15.2778 12.6562 15.434 12.5 15.625 12.5H21.875C22.066 12.5 22.2222 12.6562 22.2222 12.8472V13.5417C22.2222 13.7326 22.066 13.8889 21.875 13.8889H15.625C15.434 13.8889 15.2778 13.7326 15.2778 13.5417V12.8472ZM7.63889 6.94444C9.17101 6.94444 10.4167 8.1901 10.4167 9.72222C10.4167 11.2543 9.17101 12.5 7.63889 12.5C6.10677 12.5 4.86111 11.2543 4.86111 9.72222C4.86111 8.1901 6.10677 6.94444 7.63889 6.94444ZM2.91233 15.8073C3.27691 14.6918 4.32292 13.8889 5.55556 13.8889H5.91146C6.44531 14.1102 7.02691 14.2361 7.63889 14.2361C8.25087 14.2361 8.83681 14.1102 9.36632 13.8889H9.72222C10.9549 13.8889 12.0009 14.6918 12.3655 15.8073C12.5043 16.237 12.1398 16.6667 11.6884 16.6667H3.58941C3.13802 16.6667 2.77344 16.2326 2.91233 15.8073Z" fill="white"/>
</svg>
