<svg width="45" height="45" viewBox="0 0 45 45" fill="none" xmlns="http://www.w3.org/2000/svg">
<g id="Icon">
<rect id="icon span" width="45" height="45" rx="10" fill="#04A1DB"/>
<g id="Quiz icon">
<path id="Vector" d="M16.572 37H11.2145C10.3623 36.999 9.54523 36.66 8.94261 36.0574C8.33998 35.4548 8.00099 34.6377 8 33.7855V22.5347C8.00099 21.6824 8.33998 20.8654 8.94261 20.2628C9.54523 19.6601 10.3623 19.3212 11.2145 19.3202H19.7866C20.6388 19.3212 21.4558 19.6601 22.0585 20.2628C22.6611 20.8654 23.0001 21.6824 23.0011 22.5347V30.571C23.001 30.713 22.9446 30.8493 22.8441 30.9497L16.9508 36.843C16.8504 36.9435 16.7141 37 16.572 37ZM11.2145 20.3917C10.6463 20.3922 10.1016 20.6182 9.6998 21.02C9.29804 21.4217 9.07207 21.9665 9.07151 22.5347V33.7855C9.07207 34.3537 9.29804 34.8984 9.6998 35.3002C10.1016 35.702 10.6463 35.9279 11.2145 35.9285H16.3502L21.9296 30.3492V22.5347C21.929 21.9665 21.703 21.4217 21.3013 21.02C20.8995 20.6182 20.3547 20.3922 19.7866 20.3917H11.2145Z" fill="white"/>
<path id="Vector_2" d="M16.5721 37C16.43 37 16.2937 36.9436 16.1933 36.8431C16.0928 36.7426 16.0363 36.6063 16.0363 36.4643V33.2497C16.0373 32.3975 16.3763 31.5805 16.979 30.9778C17.5816 30.3752 18.3986 30.0362 19.2509 30.0352H22.4654C22.5713 30.0352 22.6749 30.0667 22.763 30.1256C22.851 30.1844 22.9197 30.2681 22.9602 30.366C23.0008 30.4638 23.0114 30.5716 22.9907 30.6755C22.9701 30.7794 22.9191 30.8748 22.8442 30.9498L16.9509 36.843C16.8504 36.9435 16.7142 37 16.5721 37ZM19.2509 31.1067C18.6827 31.1073 18.1379 31.3333 17.7362 31.735C17.3344 32.1368 17.1084 32.6816 17.1079 33.2497V35.1709L21.1721 31.1067H19.2509ZM13.0897 26.8207C12.5069 26.8207 11.9372 26.6479 11.4526 26.3241C10.9681 26.0003 10.5904 25.5401 10.3674 25.0017C10.1443 24.4633 10.086 23.8708 10.1997 23.2992C10.3134 22.7276 10.594 22.2026 11.0061 21.7905C11.4182 21.3784 11.9433 21.0977 12.5148 20.984C13.0864 20.8704 13.6789 20.9287 14.2173 21.1517C14.7558 21.3748 15.216 21.7524 15.5397 22.237C15.8635 22.7216 16.0363 23.2913 16.0363 23.8741C16.0354 24.6553 15.7246 25.4042 15.1722 25.9566C14.6198 26.5089 13.8709 26.8197 13.0897 26.8207ZM13.0897 21.9989C12.7188 21.9989 12.3563 22.1089 12.0479 22.315C11.7396 22.521 11.4992 22.8139 11.3573 23.1565C11.2154 23.4991 11.1783 23.8761 11.2506 24.2399C11.323 24.6036 11.5015 24.9377 11.7638 25.2C12.026 25.4622 12.3601 25.6408 12.7239 25.7132C13.0876 25.7855 13.4647 25.7484 13.8073 25.6065C14.1499 25.4645 14.4428 25.2242 14.6488 24.9158C14.8549 24.6075 14.9648 24.2449 14.9648 23.8741C14.9643 23.3769 14.7665 22.9003 14.415 22.5488C14.0635 22.1972 13.5868 21.9995 13.0897 21.9989Z" fill="white"/>
<path id="Vector_3" d="M13.3576 25.2134C13.2872 25.2135 13.2176 25.1996 13.1526 25.1727C13.0876 25.1457 13.0285 25.1062 12.9788 25.0565L11.9073 23.985C11.8097 23.8839 11.7557 23.7486 11.7569 23.6081C11.7581 23.4676 11.8145 23.3333 11.9138 23.2339C12.0132 23.1346 12.1475 23.0783 12.288 23.077C12.4285 23.0758 12.5638 23.1298 12.6649 23.2274L13.3217 23.8842L15.6244 21.1198C15.7154 21.0105 15.846 20.9419 15.9877 20.9289C16.0578 20.9225 16.1285 20.93 16.1957 20.951C16.2629 20.9719 16.3254 21.0059 16.3795 21.0509C16.4336 21.096 16.4783 21.1513 16.511 21.2136C16.5438 21.2759 16.5639 21.3441 16.5703 21.4142C16.5767 21.4843 16.5692 21.555 16.5483 21.6223C16.5274 21.6895 16.4934 21.752 16.4483 21.8061L13.7696 25.0206C13.7218 25.0778 13.6627 25.1245 13.5959 25.1576C13.5291 25.1907 13.4562 25.2095 13.3817 25.2129L13.3576 25.2134ZM19.7866 22.5347H17.6436C17.5015 22.5347 17.3652 22.4782 17.2648 22.3778C17.1643 22.2773 17.1079 22.141 17.1079 21.9989C17.1079 21.8568 17.1643 21.7206 17.2648 21.6201C17.3652 21.5196 17.5015 21.4632 17.6436 21.4632H19.7866C19.9287 21.4632 20.065 21.5196 20.1654 21.6201C20.2659 21.7206 20.3224 21.8568 20.3224 21.9989C20.3224 22.141 20.2659 22.2773 20.1654 22.3778C20.065 22.4782 19.9287 22.5347 19.7866 22.5347ZM20.3224 24.1419H17.1079C16.9658 24.1419 16.8295 24.0855 16.729 23.985C16.6285 23.8845 16.5721 23.7483 16.5721 23.6062C16.5721 23.4641 16.6285 23.3278 16.729 23.2274C16.8295 23.1269 16.9658 23.0704 17.1079 23.0704H20.3224C20.4645 23.0704 20.6007 23.1269 20.7012 23.2274C20.8017 23.3278 20.8581 23.4641 20.8581 23.6062C20.8581 23.7483 20.8017 23.8845 20.7012 23.985C20.6007 24.0855 20.4645 24.1419 20.3224 24.1419ZM13.0897 33.7855C12.5069 33.7855 11.9372 33.6127 11.4526 33.2889C10.9681 32.9651 10.5904 32.5049 10.3674 31.9665C10.1443 31.428 10.086 30.8356 10.1997 30.264C10.3134 29.6924 10.594 29.1674 11.0061 28.7553C11.4182 28.3432 11.9433 28.0625 12.5148 27.9488C13.0864 27.8351 13.6789 27.8935 14.2173 28.1165C14.7558 28.3395 15.216 28.7172 15.5397 29.2018C15.8635 29.6864 16.0363 30.2561 16.0363 30.8388C16.0354 31.62 15.7246 32.369 15.1722 32.9213C14.6198 33.4737 13.8709 33.7845 13.0897 33.7855ZM13.0897 28.9637C12.7188 28.9637 12.3563 29.0737 12.0479 29.2797C11.7396 29.4858 11.4992 29.7786 11.3573 30.1213C11.2154 30.4639 11.1783 30.8409 11.2506 31.2047C11.323 31.5684 11.5015 31.9025 11.7638 32.1648C12.026 32.427 12.3601 32.6056 12.7239 32.6779C13.0876 32.7503 13.4647 32.7132 13.8073 32.5712C14.1499 32.4293 14.4428 32.189 14.6488 31.8806C14.8549 31.5723 14.9648 31.2097 14.9648 30.8388C14.9643 30.3417 14.7665 29.8651 14.415 29.5136C14.0635 29.162 13.5868 28.9643 13.0897 28.9637ZM19.7866 29.4995H17.6436C17.5015 29.4995 17.3652 29.443 17.2648 29.3425C17.1643 29.2421 17.1079 29.1058 17.1079 28.9637C17.1079 28.8216 17.1643 28.6854 17.2648 28.5849C17.3652 28.4844 17.5015 28.428 17.6436 28.428H19.7866C19.9287 28.428 20.065 28.4844 20.1654 28.5849C20.2659 28.6854 20.3224 28.8216 20.3224 28.9637C20.3224 29.1058 20.2659 29.2421 20.1654 29.3425C20.065 29.443 19.9287 29.4995 19.7866 29.4995Z" fill="white"/>
<path id="Vector_4" d="M26.7514 29.4995C25.9963 29.499 25.2431 29.4236 24.5029 29.2745C24.367 29.2431 24.2486 29.16 24.173 29.0428C24.0974 28.9256 24.0705 28.7835 24.098 28.6468C24.1255 28.5101 24.2052 28.3894 24.3202 28.3105C24.4353 28.2317 24.5765 28.2007 24.714 28.2244C25.3847 28.3595 26.0672 28.4277 26.7514 28.428C28.7432 28.4286 30.6913 27.8449 32.3546 26.7493C34.0178 25.6536 35.3231 24.094 36.1087 22.2638C36.8943 20.4336 37.1258 18.4131 36.7744 16.4526C36.4229 14.4922 35.5041 12.6779 34.1317 11.2345C32.7593 9.79107 30.9936 8.782 29.0533 8.33227C27.113 7.88253 25.0834 8.01188 23.2159 8.7043C21.3485 9.39672 19.7251 10.6218 18.5471 12.2277C17.369 13.8337 16.6879 15.7499 16.5882 17.7392C16.579 17.8804 16.5152 18.0124 16.4103 18.1074C16.3054 18.2024 16.1676 18.2529 16.0262 18.2481C15.9559 18.2447 15.887 18.2274 15.8234 18.1974C15.7598 18.1673 15.7027 18.125 15.6554 18.0728C15.6082 18.0207 15.5716 17.9598 15.5479 17.8935C15.5242 17.8272 15.5138 17.7569 15.5173 17.6867C15.6274 15.4884 16.38 13.3707 17.6819 11.5959C18.9838 9.82109 20.7777 8.4672 22.8414 7.7019C24.9051 6.9366 27.148 6.79351 29.2923 7.29036C31.4366 7.78721 33.3879 8.90217 34.9048 10.4971C36.4216 12.0921 37.4373 14.097 37.8259 16.2635C38.2145 18.4299 37.959 20.6628 37.0911 22.6856C36.2233 24.7083 34.7811 26.432 32.9432 27.6432C31.1053 28.8543 28.9525 29.4997 26.7514 29.4995Z" fill="white"/>
<path id="Vector_5" d="M26.7512 27.3565C25.9833 27.3577 25.2182 27.2619 24.4743 27.0714C24.4048 27.0551 24.3393 27.0251 24.2817 26.9831C24.224 26.9411 24.1753 26.888 24.1384 26.827C24.1015 26.7659 24.0771 26.6981 24.0668 26.6275C24.0565 26.5569 24.0603 26.485 24.0782 26.4159C24.096 26.3469 24.1275 26.282 24.1707 26.2253C24.2139 26.1685 24.268 26.121 24.3299 26.0854C24.3917 26.0499 24.4601 26.027 24.5309 26.0182C24.6016 26.0094 24.6735 26.0149 24.7422 26.0342C26.3445 26.4481 28.0355 26.3573 29.5843 25.7743C31.1331 25.1913 32.4643 24.1445 33.396 22.7768C34.3277 21.4091 34.8145 19.7871 34.79 18.1324C34.7656 16.4776 34.231 14.8708 33.2592 13.5312C32.2875 12.1916 30.926 11.1846 29.3606 10.6477C27.7952 10.1107 26.1023 10.07 24.5129 10.5311C22.9235 10.9922 21.5152 11.9326 20.4802 13.2239C19.4451 14.5152 18.8339 16.0945 18.7299 17.7461C18.7195 17.8867 18.654 18.0175 18.5478 18.1101C18.4416 18.2027 18.3031 18.2498 18.1624 18.241C18.0218 18.2323 17.8902 18.1685 17.7963 18.0634C17.7023 17.9583 17.6536 17.8205 17.6606 17.6797C17.7716 15.9061 18.399 14.2037 19.4656 12.7823C20.5322 11.3609 21.9913 10.2825 23.6632 9.68011C25.3351 9.07771 27.1467 8.97758 28.8747 9.39204C30.6028 9.8065 32.1719 10.7174 33.3887 12.0127C34.6054 13.3079 35.4167 14.9307 35.7225 16.6813C36.0283 18.4319 35.8153 20.2337 35.1098 21.8647C34.4042 23.4957 33.2369 24.8847 31.7517 25.8605C30.2665 26.8363 28.5283 27.3563 26.7512 27.3565Z" fill="white"/>
<path id="Vector_6" d="M26.7513 19.8559C26.4334 19.8559 26.1227 19.7617 25.8584 19.585C25.594 19.4084 25.388 19.1574 25.2664 18.8637C25.1447 18.57 25.1129 18.2469 25.1749 17.9351C25.2369 17.6233 25.39 17.3369 25.6148 17.1122C25.8396 16.8874 26.126 16.7343 26.4377 16.6723C26.7495 16.6103 27.0727 16.6421 27.3664 16.7637C27.6601 16.8854 27.9111 17.0914 28.0877 17.3557C28.2643 17.62 28.3586 17.9308 28.3586 18.2487C28.3581 18.6748 28.1887 19.0834 27.8873 19.3847C27.586 19.686 27.1774 19.8555 26.7513 19.8559ZM26.7513 17.7129C26.6453 17.7129 26.5418 17.7443 26.4537 17.8032C26.3655 17.8621 26.2969 17.9457 26.2563 18.0436C26.2158 18.1415 26.2052 18.2493 26.2258 18.3532C26.2465 18.4571 26.2975 18.5526 26.3725 18.6275C26.4474 18.7024 26.5429 18.7534 26.6468 18.7741C26.7507 18.7948 26.8584 18.7842 26.9563 18.7436C27.0542 18.7031 27.1379 18.6344 27.1968 18.5463C27.2556 18.4582 27.2871 18.3546 27.2871 18.2487C27.2869 18.1066 27.2304 17.9704 27.13 17.87C27.0295 17.7695 26.8933 17.7131 26.7513 17.7129Z" fill="white"/>
<path id="Vector_7" d="M25.9937 18.0269C25.9234 18.0269 25.8537 18.0131 25.7887 17.9862C25.7237 17.9592 25.6646 17.9197 25.615 17.8699L24.0999 16.3542C24.0023 16.2532 23.9483 16.1179 23.9495 15.9774C23.9507 15.8369 24.007 15.7025 24.1064 15.6032C24.2057 15.5039 24.3401 15.4475 24.4806 15.4463C24.621 15.4451 24.7564 15.4991 24.8574 15.5967L26.3725 17.1123C26.4474 17.1873 26.4984 17.2827 26.5191 17.3866C26.5398 17.4905 26.5291 17.5982 26.4886 17.6961C26.4481 17.794 26.3794 17.8777 26.2913 17.9365C26.2032 17.9954 26.0997 18.0268 25.9937 18.0269ZM27.5088 18.0269C27.4029 18.0268 27.2993 17.9954 27.2113 17.9365C27.1232 17.8777 27.0545 17.794 27.014 17.6961C26.9734 17.5982 26.9628 17.4905 26.9835 17.3866C27.0042 17.2827 27.0552 17.1873 27.1301 17.1123L30.5396 13.7028C30.6406 13.6052 30.776 13.5512 30.9165 13.5524C31.0569 13.5536 31.1913 13.61 31.2906 13.7093C31.39 13.8087 31.4463 13.943 31.4475 14.0835C31.4487 14.224 31.3947 14.3593 31.2972 14.4604L27.8876 17.8699C27.8379 17.9197 27.7789 17.9592 27.7139 17.9862C27.6489 18.0131 27.5792 18.0269 27.5088 18.0269ZM26.7513 11.2839C26.6092 11.2839 26.4729 11.2274 26.3725 11.127C26.272 11.0265 26.2155 10.8902 26.2155 10.7481V10.2124C26.2155 10.0703 26.272 9.93401 26.3725 9.83354C26.4729 9.73307 26.6092 9.67662 26.7513 9.67662C26.8934 9.67662 27.0297 9.73307 27.1301 9.83354C27.2306 9.93401 27.287 10.0703 27.287 10.2124V10.7481C27.287 10.8902 27.2306 11.0265 27.1301 11.127C27.0297 11.2274 26.8934 11.2839 26.7513 11.2839ZM26.7513 26.8207C26.6092 26.8207 26.4729 26.7643 26.3725 26.6638C26.272 26.5633 26.2155 26.427 26.2155 26.2849V25.7492C26.2155 25.6071 26.272 25.4708 26.3725 25.3704C26.4729 25.2699 26.6092 25.2134 26.7513 25.2134C26.8934 25.2134 27.0297 25.2699 27.1301 25.3704C27.2306 25.4708 27.287 25.6071 27.287 25.7492V26.2849C27.287 26.427 27.2306 26.5633 27.1301 26.6638C27.0297 26.7643 26.8934 26.8207 26.7513 26.8207ZM34.7876 18.7844H34.2518C34.1097 18.7844 33.9735 18.728 33.873 18.6275C33.7725 18.527 33.7161 18.3908 33.7161 18.2487C33.7161 18.1066 33.7725 17.9703 33.873 17.8698C33.9735 17.7694 34.1097 17.7129 34.2518 17.7129H34.7876C34.9297 17.7129 35.0659 17.7694 35.1664 17.8698C35.2669 17.9703 35.3233 18.1066 35.3233 18.2487C35.3233 18.3908 35.2669 18.527 35.1664 18.6275C35.0659 18.728 34.9297 18.7844 34.7876 18.7844Z" fill="white"/>
</g>
</g>
</svg>
