<svg width="45" height="45" viewBox="0 0 45 45" fill="none" xmlns="http://www.w3.org/2000/svg">
<g id="Icon">
<rect id="icon span" width="45" height="45" rx="10" fill="#04A1DB" fill-opacity="0.858824"/>
<g id="Results icon">
<path id="Layer 2" d="M9.50357 22.2281C9.37968 22.228 9.26051 22.1805 9.17055 22.0953C9.08059 22.0101 9.02666 21.8937 9.01986 21.77C9.00642 21.517 8.9998 21.2637 9 21.0103L9.00194 20.7672C9.00423 20.6403 9.05625 20.5194 9.1468 20.4305C9.23736 20.3415 9.35922 20.2917 9.48614 20.2917H9.49534C9.62359 20.2943 9.7456 20.3476 9.83457 20.44C9.92353 20.5325 9.97219 20.6564 9.96986 20.7847L9.9684 21.0103C9.9684 21.245 9.97486 21.4808 9.98777 21.7177C9.99123 21.7813 9.98212 21.8449 9.96097 21.9049C9.93981 21.965 9.90702 22.0203 9.86448 22.0676C9.82193 22.115 9.77047 22.1535 9.71303 22.1809C9.65558 22.2084 9.59329 22.2242 9.52972 22.2276C9.52085 22.228 9.51245 22.2281 9.50357 22.2281ZM9.65706 19.3335C9.58689 19.3336 9.51754 19.3184 9.45381 19.289C9.39009 19.2596 9.33352 19.2167 9.28802 19.1633C9.24252 19.1099 9.20917 19.0472 9.19029 18.9796C9.17141 18.912 9.16745 18.8411 9.17867 18.7718C9.23194 18.4411 9.29779 18.1104 9.37429 17.788C9.38898 17.7261 9.41571 17.6677 9.45296 17.6162C9.4902 17.5646 9.53724 17.5209 9.59137 17.4876C9.6455 17.4542 9.70568 17.4318 9.76846 17.4217C9.83124 17.4116 9.8954 17.414 9.95727 17.4287C10.0191 17.4434 10.0775 17.4701 10.129 17.5073C10.1806 17.5446 10.2243 17.5916 10.2576 17.6458C10.291 17.6999 10.3134 17.7601 10.3235 17.8228C10.3336 17.8856 10.3312 17.9498 10.3165 18.0117C10.245 18.3142 10.1844 18.6193 10.135 18.9263C10.1166 19.0398 10.0584 19.143 9.97082 19.2176C9.88326 19.2921 9.77204 19.3335 9.65706 19.3335ZM10.424 16.5373C10.3633 16.5373 10.3032 16.5258 10.2468 16.5034C10.1876 16.4801 10.1336 16.4453 10.0879 16.4012C10.0422 16.357 10.0056 16.3043 9.98019 16.2459C9.95484 16.1876 9.94121 16.1249 9.9401 16.0613C9.93899 15.9977 9.95042 15.9345 9.97373 15.8754C10.0948 15.5679 10.2299 15.2585 10.3756 14.9554C10.4021 14.8964 10.4401 14.8433 10.4874 14.7992C10.5347 14.7551 10.5904 14.7209 10.6511 14.6987C10.7118 14.6765 10.7764 14.6666 10.841 14.6698C10.9056 14.6729 10.9689 14.689 11.0272 14.717C11.0855 14.745 11.1376 14.7844 11.1804 14.8329C11.2232 14.8814 11.2559 14.9379 11.2765 14.9992C11.2971 15.0605 11.3052 15.1253 11.3003 15.1898C11.2954 15.2543 11.2777 15.3172 11.2481 15.3747C11.113 15.6565 10.9872 15.9446 10.8748 16.2303C10.8392 16.3207 10.7772 16.3983 10.6969 16.4531C10.6166 16.5078 10.5212 16.5371 10.424 16.5373ZM34.5831 14.386C34.5004 14.3861 34.419 14.3651 34.3467 14.3248C34.2743 14.2845 34.2136 14.2264 34.1701 14.156C34.0089 13.8945 33.8346 13.6335 33.652 13.3808C33.6148 13.3292 33.5881 13.2708 33.5734 13.2089C33.5588 13.147 33.5564 13.0829 33.5666 13.0201C33.5767 12.9573 33.5991 12.8971 33.6325 12.843C33.6659 12.7888 33.7096 12.7418 33.7612 12.7046C33.8128 12.6674 33.8712 12.6407 33.9331 12.626C33.995 12.6113 34.0591 12.609 34.1219 12.6191C34.1847 12.6293 34.2449 12.6517 34.299 12.6851C34.3531 12.7185 34.4002 12.7622 34.4374 12.8138C34.634 13.0859 34.8209 13.3658 34.9952 13.6481C35.0403 13.7214 35.065 13.8054 35.0669 13.8914C35.0687 13.9775 35.0476 14.0625 35.0057 14.1376C34.9637 14.2128 34.9025 14.2754 34.8284 14.3191C34.7542 14.3627 34.6697 14.3858 34.5836 14.386H34.5831ZM11.7716 13.9686C11.6839 13.9685 11.5979 13.9446 11.5228 13.8995C11.4476 13.8543 11.3862 13.7896 11.3449 13.7123C11.3037 13.6349 11.2842 13.5479 11.2885 13.4603C11.2929 13.3728 11.3209 13.288 11.3697 13.2152C11.5556 12.9372 11.7532 12.6632 11.9575 12.4017C11.9964 12.3511 12.045 12.3087 12.1004 12.277C12.1558 12.2452 12.2169 12.2247 12.2803 12.2167C12.3436 12.2086 12.4079 12.2132 12.4695 12.2301C12.5311 12.247 12.5887 12.2759 12.639 12.3152C12.6894 12.3545 12.7315 12.4033 12.7628 12.4589C12.7942 12.5145 12.8143 12.5758 12.822 12.6392C12.8296 12.7026 12.8246 12.7668 12.8073 12.8283C12.79 12.8898 12.7607 12.9472 12.7211 12.9973C12.5297 13.2426 12.3472 13.4947 12.1739 13.7531C12.1297 13.8193 12.0699 13.8737 11.9997 13.9112C11.9295 13.9488 11.8512 13.9685 11.7716 13.9686ZM32.8032 12.0967C32.7381 12.0968 32.6737 12.0837 32.6138 12.0582C32.5539 12.0328 32.4997 11.9954 32.4546 11.9485C32.2385 11.7243 32.0145 11.5079 31.783 11.2997C31.7344 11.2575 31.6947 11.2061 31.6662 11.1485C31.6377 11.0908 31.621 11.0281 31.617 10.9639C31.6131 10.8997 31.6219 10.8354 31.6431 10.7747C31.6642 10.7139 31.6973 10.658 31.7403 10.6102C31.7832 10.5624 31.8353 10.5236 31.8935 10.4961C31.9516 10.4687 32.0147 10.453 32.0789 10.4502C32.1432 10.4474 32.2073 10.4574 32.2677 10.4796C32.328 10.5018 32.3833 10.5358 32.4304 10.5797C32.6764 10.801 32.9194 11.0348 33.1518 11.276C33.2179 11.3443 33.2624 11.4307 33.2798 11.5242C33.2971 11.6177 33.2865 11.7143 33.2494 11.8018C33.2122 11.8893 33.15 11.964 33.0707 12.0164C32.9914 12.0689 32.8983 12.0968 32.8032 12.0967ZM13.6328 11.7452C13.5363 11.7452 13.442 11.7163 13.362 11.6623C13.2819 11.6083 13.2199 11.5316 13.1838 11.4421C13.1477 11.3526 13.1391 11.2543 13.1593 11.1599C13.1794 11.0655 13.2273 10.9793 13.2968 10.9123C13.5373 10.6805 13.7859 10.4572 14.042 10.2427C14.0904 10.1995 14.147 10.1666 14.2084 10.1457C14.2698 10.1249 14.3347 10.1166 14.3994 10.1213C14.4641 10.126 14.5272 10.1437 14.5849 10.1733C14.6426 10.2029 14.6938 10.2437 14.7354 10.2935C14.777 10.3432 14.8082 10.4008 14.8271 10.4628C14.8461 10.5248 14.8524 10.59 14.8456 10.6545C14.8389 10.719 14.8193 10.7815 14.788 10.8382C14.7566 10.895 14.7142 10.9449 14.6632 10.985C14.4246 11.1851 14.193 11.3934 13.9689 11.6096C13.8787 11.6966 13.7582 11.7453 13.6328 11.7452ZM30.5788 10.2359C30.4829 10.2358 30.3892 10.2072 30.3096 10.1536C30.0511 9.98048 29.7866 9.81656 29.5165 9.66213C29.4597 9.63144 29.4096 9.5897 29.3692 9.53937C29.3288 9.48905 29.2988 9.43115 29.2811 9.36908C29.2634 9.30701 29.2582 9.24202 29.266 9.17794C29.2738 9.11385 29.2943 9.05197 29.3263 8.99593C29.3583 8.93988 29.4012 8.89081 29.4525 8.85158C29.5038 8.81236 29.5624 8.78379 29.6248 8.76754C29.6873 8.7513 29.7524 8.74771 29.8163 8.75698C29.8802 8.76626 29.9415 8.78821 29.9968 8.82156C30.287 8.98739 30.5712 9.16342 30.849 9.34933C30.9351 9.40722 31.0004 9.49124 31.0352 9.58903C31.0699 9.68681 31.0723 9.79317 31.0421 9.89244C31.0118 9.99171 30.9504 10.0786 30.867 10.1404C30.7836 10.2021 30.6826 10.2359 30.5788 10.2359ZM15.9216 9.96669C15.8162 9.96688 15.7135 9.93264 15.6293 9.86918C15.5451 9.80572 15.4839 9.7165 15.455 9.61508C15.4262 9.51366 15.4312 9.40558 15.4694 9.30728C15.5075 9.20897 15.5767 9.12581 15.6665 9.07043C15.9487 8.89612 16.2412 8.72907 16.5366 8.57462C16.5931 8.54216 16.6555 8.52145 16.7202 8.51371C16.7849 8.50597 16.8505 8.51137 16.9131 8.52958C16.9756 8.54779 17.0338 8.57844 17.0843 8.61969C17.1347 8.66094 17.1763 8.71195 17.2066 8.76965C17.2368 8.82735 17.2551 8.89057 17.2604 8.95551C17.2656 9.02045 17.2577 9.08579 17.2371 9.1476C17.2165 9.20941 17.1836 9.26642 17.1404 9.31523C17.0973 9.36404 17.0447 9.40364 16.9859 9.43165C16.7114 9.57642 16.4388 9.73185 16.1758 9.89406C16.0995 9.9414 16.0115 9.96655 15.9216 9.96669ZM28.0121 8.88886C27.9514 8.88892 27.8912 8.87741 27.8349 8.85497C27.5451 8.74115 27.2515 8.63747 26.9546 8.54411C26.8321 8.50559 26.7299 8.41997 26.6705 8.3061C26.6111 8.19223 26.5994 8.05944 26.6379 7.93692C26.6764 7.81441 26.7621 7.71223 26.8759 7.65284C26.9898 7.59345 27.1226 7.58173 27.2451 7.62026C27.5618 7.71952 27.8794 7.83185 28.1898 7.95436C28.2945 7.99576 28.3816 8.07238 28.4359 8.17104C28.4903 8.2697 28.5085 8.38421 28.4875 8.49488C28.4665 8.60554 28.4076 8.70542 28.3209 8.77734C28.2342 8.84925 28.1247 8.88868 28.0121 8.88886ZM18.5349 8.71552C18.4206 8.71543 18.3101 8.67497 18.2229 8.60129C18.1356 8.52761 18.0772 8.42545 18.058 8.31287C18.0387 8.20029 18.0599 8.08454 18.1177 7.98606C18.1756 7.88758 18.2664 7.81273 18.3741 7.77472C18.6874 7.66481 19.0084 7.56409 19.3309 7.47597C19.3922 7.45921 19.4563 7.45471 19.5194 7.46271C19.5825 7.47071 19.6434 7.49106 19.6986 7.52261C19.7539 7.55415 19.8024 7.59626 19.8413 7.64654C19.8803 7.69681 19.909 7.75427 19.9257 7.81563C19.9425 7.87699 19.947 7.94105 19.939 8.00415C19.931 8.06726 19.9106 8.12816 19.8791 8.1834C19.8475 8.23864 19.8054 8.28712 19.7551 8.32608C19.7049 8.36504 19.6474 8.39372 19.586 8.41047C19.2863 8.49182 18.9871 8.58575 18.6956 8.68792C18.644 8.70613 18.5896 8.71546 18.5349 8.71552ZM25.2168 8.12092C25.1908 8.12092 25.1649 8.11881 25.1393 8.11463C24.832 8.06506 24.5231 8.02646 24.2131 7.9989C24.0852 7.98759 23.967 7.92594 23.8845 7.82751C23.8021 7.72908 23.7621 7.60193 23.7734 7.47403C23.7866 7.34693 23.8488 7.22997 23.9468 7.14791C24.0448 7.06585 24.1708 7.02514 24.2983 7.03438C24.6285 7.06343 24.9631 7.10556 25.2938 7.15882C25.4138 7.17835 25.522 7.24229 25.597 7.33793C25.672 7.43358 25.7083 7.55394 25.6986 7.6751C25.689 7.79627 25.6342 7.90938 25.545 7.99197C25.4558 8.07456 25.3383 8.12059 25.2168 8.12092ZM21.3568 8.05313C21.2331 8.05362 21.114 8.0068 21.0238 7.92228C20.9336 7.83775 20.8791 7.72192 20.8716 7.59852C20.864 7.47513 20.9039 7.35351 20.9832 7.25862C21.0624 7.16372 21.1749 7.10272 21.2977 7.08812C21.6289 7.04687 21.9614 7.01748 22.2947 7L22.3213 7.48371V7.96791C22.0366 7.98341 21.7248 8.01052 21.4168 8.04926C21.3969 8.05169 21.3768 8.0533 21.3568 8.05313ZM36.9417 18.7428L29.1945 10.9956C29.1496 10.9506 29.0962 10.9148 29.0375 10.8904C28.9788 10.8659 28.9158 10.8533 28.8522 10.8533H19.1682C18.5264 10.854 17.9111 11.1094 17.4573 11.5632C17.0035 12.0171 16.7483 12.6324 16.7477 13.2743V18.6489C16.2012 18.7612 15.7101 19.0585 15.3573 19.4907C15.0045 19.9229 14.8115 20.4635 14.8109 21.0214V23.4424C14.8105 23.8276 14.6573 24.1968 14.385 24.4691C14.1127 24.7415 13.7434 24.8946 13.3583 24.895H12.8741V23.9266C12.8741 23.7982 12.8231 23.6751 12.7323 23.5842C12.6415 23.4934 12.5183 23.4424 12.3899 23.4424H9.48469C9.35627 23.4424 9.23311 23.4934 9.14231 23.5842C9.0515 23.6751 9.00049 23.7982 9.00049 23.9266V36.5158C9.00049 36.6442 9.0515 36.7674 9.14231 36.8582C9.23311 36.949 9.35627 37 9.48469 37H12.3899C12.5183 37 12.6415 36.949 12.7323 36.8582C12.8231 36.7674 12.8741 36.6442 12.8741 36.5158V35.5474H16.9564C17.1429 35.9791 17.4517 36.3467 17.8448 36.6048C18.2379 36.863 18.6979 37.0004 19.1682 37H34.6625C35.3044 36.9992 35.9197 36.7439 36.3736 36.2901C36.8275 35.8362 37.0828 35.2209 37.0835 34.579V19.0846C37.0834 18.9564 37.0324 18.8335 36.9417 18.7428ZM29.3364 12.5063L35.4305 18.6004H30.789C30.4038 18.6001 30.0346 18.4469 29.7622 18.1746C29.4899 17.9022 29.3367 17.533 29.3364 17.1478V12.5063ZM11.9057 36.0316H9.96889V24.4108H11.9057V36.0316ZM12.8741 25.8634H13.3583C14.0001 25.8627 14.6155 25.6073 15.0693 25.1535C15.5232 24.6996 15.7785 24.0843 15.7793 23.4424V21.0214C15.7758 20.8285 15.8107 20.6368 15.8821 20.4575C15.9535 20.2782 16.0599 20.1149 16.1952 19.9772C16.3304 19.8395 16.4917 19.7301 16.6696 19.6554C16.8476 19.5808 17.0386 19.5423 17.2316 19.5423C17.4246 19.5423 17.6157 19.5808 17.7936 19.6554C17.9716 19.7301 18.1329 19.8395 18.2681 19.9772C18.4033 20.1149 18.5097 20.2782 18.5811 20.4575C18.6525 20.6368 18.6875 20.8285 18.684 21.0214V24.4108C18.684 24.5392 18.735 24.6624 18.8258 24.7532C18.9166 24.844 19.0398 24.895 19.1682 24.895H23.4345C23.7891 24.895 24.1394 24.9728 24.4607 25.1231C24.7819 25.2734 25.0662 25.4925 25.2934 25.7648C25.5206 26.0371 25.6852 26.356 25.7756 26.6989C25.8659 27.0419 25.8798 27.4005 25.8162 27.7494L24.9369 32.5909C24.8355 33.1488 24.5415 33.6534 24.1062 34.0168C23.6708 34.3801 23.1217 34.5791 22.5547 34.579H12.8736L12.8741 25.8634ZM34.6625 36.0316H19.1682C18.9643 36.0316 18.7627 35.9884 18.5767 35.905C18.3907 35.8215 18.2245 35.6997 18.0889 35.5474H22.5542C23.348 35.5476 24.1167 35.269 24.7261 34.7604C25.3356 34.2517 25.7471 33.5453 25.8889 32.7642L26.7687 27.9222C26.8576 27.4339 26.8382 26.9319 26.7117 26.4519C26.5853 25.9718 26.3549 25.5254 26.0368 25.1443C25.7188 24.7631 25.3209 24.4565 24.8713 24.2461C24.4217 24.0357 23.9314 23.9266 23.4349 23.9266H19.6524V21.0214C19.6517 20.4637 19.4587 19.9232 19.106 19.4911C18.7533 19.059 18.2624 18.7617 17.7161 18.6493V13.2747C17.7163 12.8896 17.8694 12.5203 18.1416 12.2479C18.4138 11.9755 18.783 11.8222 19.1682 11.8217H28.368V17.1478C28.3687 17.7897 28.624 18.405 29.0779 18.8589C29.5318 19.3128 30.1471 19.5681 30.789 19.5688H36.1151V34.579C36.1148 34.9641 35.9616 35.3334 35.6893 35.6057C35.4169 35.8781 35.0477 36.0312 34.6625 36.0316ZM30.2162 28.084C30.1776 27.9994 30.1156 27.9278 30.0375 27.8775C29.9594 27.8272 29.8684 27.8005 29.7755 27.8005C29.6826 27.8005 29.5917 27.8272 29.5136 27.8775C29.4354 27.9278 29.3734 27.9994 29.3349 28.084L26.9139 33.4101C26.8859 33.4682 26.8698 33.5314 26.8665 33.5958C26.8632 33.6602 26.8728 33.7246 26.8947 33.7853C26.9167 33.8459 26.9505 33.9016 26.9943 33.949C27.038 33.9964 27.0908 34.0345 27.1495 34.0612C27.2082 34.0879 27.2717 34.1027 27.3362 34.1045C27.4006 34.1063 27.4648 34.0953 27.525 34.072C27.5851 34.0487 27.64 34.0136 27.6864 33.9688C27.7328 33.924 27.7698 33.8704 27.7952 33.8111L28.3302 32.6345C28.3433 32.6354 28.3544 32.6422 28.368 32.6422H31.2247L31.7554 33.8111C31.7808 33.8704 31.8178 33.924 31.8642 33.9688C31.9106 34.0136 31.9655 34.0487 32.0256 34.072C32.0857 34.0953 32.1499 34.1063 32.2144 34.1045C32.2789 34.1027 32.3423 34.0879 32.401 34.0612C32.4598 34.0345 32.5125 33.9964 32.5563 33.949C32.6001 33.9016 32.6339 33.8459 32.6558 33.7853C32.6778 33.7246 32.6874 33.6602 32.6841 33.5958C32.6808 33.5314 32.6647 33.4682 32.6367 33.4101L30.2162 28.084ZM28.7669 31.6738L29.7755 29.4547L30.7841 31.6738H28.7669ZM34.1783 29.2528C34.1783 29.3812 34.1273 29.5044 34.0365 29.5952C33.9457 29.686 33.8226 29.737 33.6942 29.737H33.21V30.2212C33.21 30.3496 33.1589 30.4728 33.0681 30.5636C32.9773 30.6544 32.8542 30.7054 32.7258 30.7054C32.5973 30.7054 32.4742 30.6544 32.3834 30.5636C32.2926 30.4728 32.2416 30.3496 32.2416 30.2212V29.737H31.7574C31.6289 29.737 31.5058 29.686 31.415 29.5952C31.3242 29.5044 31.2732 29.3812 31.2732 29.2528C31.2732 29.1244 31.3242 29.0012 31.415 28.9104C31.5058 28.8196 31.6289 28.7686 31.7574 28.7686H32.2416V28.2844C32.2416 28.156 32.2926 28.0328 32.3834 27.942C32.4742 27.8512 32.5973 27.8002 32.7258 27.8002C32.8542 27.8002 32.9773 27.8512 33.0681 27.942C33.1589 28.0328 33.21 28.156 33.21 28.2844V28.7686H33.6942C33.8226 28.7686 33.9457 28.8196 34.0365 28.9104C34.1273 29.0012 34.1783 29.1244 34.1783 29.2528ZM26.4312 15.211C26.4312 15.3395 26.3802 15.4626 26.2893 15.5534C26.1985 15.6442 26.0754 15.6952 25.947 15.6952H21.5892C21.4608 15.6952 21.3376 15.6442 21.2468 15.5534C21.156 15.4626 21.105 15.3395 21.105 15.211C21.105 15.0826 21.156 14.9595 21.2468 14.8687C21.3376 14.7779 21.4608 14.7268 21.5892 14.7268H25.947C26.0754 14.7268 26.1985 14.7779 26.2893 14.8687C26.3802 14.9595 26.4312 15.0826 26.4312 15.211ZM21.105 17.632C21.105 17.5036 21.156 17.3805 21.2468 17.2897C21.3376 17.1989 21.4608 17.1478 21.5892 17.1478H24.0102C24.1386 17.1478 24.2617 17.1989 24.3526 17.2897C24.4434 17.3805 24.4944 17.5036 24.4944 17.632C24.4944 17.7605 24.4434 17.8836 24.3526 17.9744C24.2617 18.0652 24.1386 18.1162 24.0102 18.1162H21.5892C21.4608 18.1162 21.3376 18.0652 21.2468 17.9744C21.156 17.8836 21.105 17.7605 21.105 17.632ZM26.4312 20.053C26.4312 20.1815 26.3802 20.3046 26.2893 20.3954C26.1985 20.4862 26.0754 20.5372 25.947 20.5372H21.5892C21.4608 20.5372 21.3376 20.4862 21.2468 20.3954C21.156 20.3046 21.105 20.1815 21.105 20.053C21.105 19.9246 21.156 19.8015 21.2468 19.7107C21.3376 19.6199 21.4608 19.5688 21.5892 19.5688H25.947C26.0754 19.5688 26.1985 19.6199 26.2893 19.7107C26.3802 19.8015 26.4312 19.9246 26.4312 20.053Z" fill="white"/>
</g>
</g>
</svg>
