<svg width="63" height="50" viewBox="0 0 63 50" fill="none" xmlns="http://www.w3.org/2000/svg">
<path id="Vector" d="M60.9375 20.3125H54.6875V14.0625C54.6875 13.2031 53.9844 12.5 53.125 12.5H50C49.1406 12.5 48.4375 13.2031 48.4375 14.0625V20.3125H42.1875C41.3281 20.3125 40.625 21.0156 40.625 21.875V25C40.625 25.8594 41.3281 26.5625 42.1875 26.5625H48.4375V32.8125C48.4375 33.6719 49.1406 34.375 50 34.375H53.125C53.9844 34.375 54.6875 33.6719 54.6875 32.8125V26.5625H60.9375C61.7969 26.5625 62.5 25.8594 62.5 25V21.875C62.5 21.0156 61.7969 20.3125 60.9375 20.3125ZM21.875 25C28.7793 25 34.375 19.4043 34.375 12.5C34.375 5.5957 28.7793 0 21.875 0C14.9707 0 9.375 5.5957 9.375 12.5C9.375 19.4043 14.9707 25 21.875 25ZM30.625 28.125H28.9941C26.8262 29.1211 24.4141 29.6875 21.875 29.6875C19.3359 29.6875 16.9336 29.1211 14.7559 28.125H13.125C5.87891 28.125 0 34.0039 0 41.25V45.3125C0 47.9004 2.09961 50 4.6875 50H39.0625C41.6504 50 43.75 47.9004 43.75 45.3125V41.25C43.75 34.0039 37.8711 28.125 30.625 28.125Z" fill="white"/>
</svg>
