<svg width="45" height="45" viewBox="0 0 45 45" fill="none" xmlns="http://www.w3.org/2000/svg">
<g id="Icon">
<rect id="icon span" width="45" height="45" rx="10" fill="#04A1DB"/>
<g id="Students icon">
<path id="Vector" fill-rule="evenodd" clip-rule="evenodd" d="M15.7563 10.0945H30.2437C30.5265 10.0945 30.7563 9.86504 30.7563 9.58217C30.7563 9.29929 30.5265 9.06956 30.2437 9.06956H15.7563C15.4734 9.06956 15.2437 9.29929 15.2437 9.58217C15.2437 9.86504 15.4734 10.0945 15.7563 10.0945ZM15.7563 12.1643H30.2437C30.5265 12.1643 30.7563 11.9346 30.7563 11.6517C30.7563 11.3688 30.5265 11.1391 30.2437 11.1391H15.7563C15.4734 11.1391 15.2437 11.3688 15.2437 11.6517C15.2437 11.9346 15.4734 12.1643 15.7563 12.1643ZM29.7214 31.3233C29.7214 27.8282 26.8881 24.9949 23.393 24.9949C23.0301 24.9949 22.6648 24.9949 22.3022 24.9949C18.8068 24.9949 15.9736 27.8282 15.9736 31.3233C15.9736 33.9556 15.9736 36.4874 15.9736 36.4874C15.9736 36.7705 16.2031 37 16.4862 37H29.209C29.4919 37 29.7214 36.7705 29.7214 36.4874V31.3233ZM28.6964 31.3233C28.6964 28.3944 26.3218 26.0199 23.393 26.0199C23.0301 26.0199 22.6648 26.0199 22.3022 26.0199C19.3731 26.0199 16.9985 28.3944 16.9985 31.3233V35.9748H28.6964V31.3233Z" fill="white"/>
<path id="Vector_2" fill-rule="evenodd" clip-rule="evenodd" d="M28.6963 35.9748V31.3233C28.6963 29.8784 28.1184 28.568 27.1811 27.6119C26.9859 27.4127 26.9856 27.0943 27.1803 26.8949C28.3258 25.7224 29.9242 24.9949 31.6925 24.9949C35.1759 24.9949 38 27.8187 38 31.3024V36.4874C38 36.7705 37.7705 37 37.4874 37H25.8973V35.9748H28.6963ZM36.9748 35.9748V31.3024C36.9748 28.385 34.6099 26.0199 31.6925 26.0199C30.3841 26.0199 29.1871 26.4955 28.2642 27.2835C29.1741 28.3795 29.7213 29.7875 29.7213 31.3233V35.9748H36.9748ZM20.1024 37H8.51236C8.22948 37 8 36.7705 8 36.4874C8 36.4874 8 33.942 8 31.3024C8 27.8187 10.8238 24.9949 14.3075 24.9949C15.9921 24.9949 17.5225 25.6553 18.6538 26.7314C18.7556 26.8283 18.8132 26.9627 18.813 27.1032C18.813 27.2436 18.7551 27.3779 18.6533 27.4748C17.6343 28.4409 16.9985 29.8078 16.9985 31.3233V35.9748H20.1024V37ZM17.556 27.137C16.6602 26.4369 15.5324 26.0199 14.3075 26.0199C11.3901 26.0199 9.02497 28.385 9.02497 31.3024V35.9748H15.9735V31.3233C15.9735 29.7182 16.5713 28.2524 17.556 27.137ZM23 15.5072C20.7812 15.5072 18.9798 17.3085 18.9798 19.5274C18.9798 21.7459 20.7812 23.5473 23 23.5473C25.2186 23.5473 27.0199 21.7459 27.0199 19.5274C27.0199 17.3085 25.2186 15.5072 23 15.5072ZM23 16.5322C24.6528 16.5322 25.9949 17.8743 25.9949 19.5274C25.9949 21.1802 24.6528 22.5223 23 22.5223C21.3469 22.5223 20.0051 21.1802 20.0051 19.5274C20.0051 17.8743 21.3469 16.5322 23 16.5322ZM32.3134 15.5072C30.0946 15.5072 28.2932 17.3085 28.2932 19.5274C28.2932 21.7459 30.0946 23.5473 32.3134 23.5473C34.5319 23.5473 36.3333 21.7459 36.3333 19.5274C36.3333 17.3085 34.5319 15.5072 32.3134 15.5072ZM32.3134 16.5322C33.9662 16.5322 35.3083 17.8743 35.3083 19.5274C35.3083 21.1802 33.9662 22.5223 32.3134 22.5223C30.6603 22.5223 29.3184 21.1802 29.3184 19.5274C29.3184 17.8743 30.6603 16.5322 32.3134 16.5322ZM13.6866 15.5072C11.4678 15.5072 9.66647 17.3085 9.66647 19.5274C9.66647 21.7459 11.4678 23.5473 13.6866 23.5473C15.9052 23.5473 17.7065 21.7459 17.7065 19.5274C17.7065 17.3085 15.9052 15.5072 13.6866 15.5072ZM13.6866 16.5322C15.3394 16.5322 16.6816 17.8743 16.6816 19.5274C16.6816 21.1802 15.3394 22.5223 13.6866 22.5223C12.0336 22.5223 10.6917 21.1802 10.6917 19.5274C10.6917 17.8743 12.0336 16.5322 13.6866 16.5322ZM33.7745 7.22824C33.6796 7.08543 33.5194 7 33.348 7H12.6517C12.4804 7 12.3204 7.08543 12.2253 7.22824L10.1557 10.3327C10.0407 10.5048 10.0407 10.7291 10.1557 10.9012L12.2253 14.0056C12.3204 14.1482 12.4804 14.2339 12.6517 14.2339H33.348C33.5194 14.2339 33.6796 14.1482 33.7745 14.0056L35.8443 10.9012C35.959 10.7291 35.959 10.5048 35.8443 10.3327L33.7745 7.22824ZM12.9259 8.02497L11.1981 10.6168L12.9259 13.2089H33.0738L34.8017 10.6168L33.0738 8.02497H12.9259Z" fill="white"/>
</g>
</g>
</svg>
