<svg width="44" height="50" viewBox="0 0 44 50" fill="none" xmlns="http://www.w3.org/2000/svg">
<path id="Vector" d="M31.1899 31.3095L21.8739 40.6255L12.558 31.3095C5.5759 31.6122 0 37.3248 0 44.3753V45.3127C0 47.9005 2.09951 50 4.68727 50H39.0606C41.6484 50 43.7479 47.9005 43.7479 45.3127V44.3753C43.7479 37.3248 38.172 31.6122 31.1899 31.3095ZM1.32806 7.79503L1.95303 7.94151V13.6444C1.26947 14.0545 0.781212 14.7673 0.781212 15.6267C0.781212 16.4469 1.23041 17.1305 1.86514 17.5504L0.34178 23.6341C0.175773 24.3079 0.546848 25.0012 1.08393 25.0012H5.16576C5.70285 25.0012 6.07392 24.3079 5.90791 23.6341L4.38455 17.5504C5.01929 17.1305 5.46848 16.4469 5.46848 15.6267C5.46848 14.7673 4.98023 14.0545 4.29666 13.6444V8.50788L10.7417 10.0605C9.90186 11.7401 9.37454 13.6151 9.37454 15.6267C9.37454 22.5306 14.97 28.1261 21.8739 28.1261C28.7779 28.1261 34.3733 22.5306 34.3733 15.6267C34.3733 13.6151 33.8558 11.7401 33.0062 10.0605L42.41 7.79503C44.1873 7.36536 44.1873 5.14867 42.41 4.71901L23.8172 0.22704C22.5477 -0.0756799 21.2099 -0.0756799 19.9404 0.22704L1.32806 4.70924C-0.439432 5.13891 -0.439432 7.36536 1.32806 7.79503Z" fill="white"/>
</svg>
