<svg width="27" height="20" viewBox="0 0 27 20" fill="none" xmlns="http://www.w3.org/2000/svg">
<path id="Vector" d="M26.1615 6.60417C26.3646 6.44271 26.6667 6.59375 26.6667 6.84896V17.5C26.6667 18.8802 25.5469 20 24.1667 20H2.5C1.11979 20 0 18.8802 0 17.5V6.85417C0 6.59375 0.296875 6.44792 0.505208 6.60937C1.67187 7.51562 3.21875 8.66667 8.53125 12.526C9.63021 13.3281 11.4844 15.0156 13.3333 15.0052C15.1927 15.0208 17.0833 13.2969 18.1406 12.526C23.4531 8.66667 24.9948 7.51042 26.1615 6.60417ZM13.3333 13.3333C14.5417 13.3542 16.2812 11.8125 17.1562 11.1771C24.0677 6.16146 24.5937 5.72396 26.1875 4.47396C26.4896 4.23958 26.6667 3.875 26.6667 3.48958V2.5C26.6667 1.11979 25.5469 0 24.1667 0H2.5C1.11979 0 0 1.11979 0 2.5V3.48958C0 3.875 0.177083 4.23437 0.479167 4.47396C2.07292 5.71875 2.59896 6.16146 9.51042 11.1771C10.3854 11.8125 12.125 13.3542 13.3333 13.3333Z" fill="#04A1DB"/>
</svg>
