<svg width="28" height="28" viewBox="0 0 28 28" fill="none" xmlns="http://www.w3.org/2000/svg">
<g id="new quiz icon">
<path id="Vector" d="M14 2C6.8 2 1 7.8 1 15C1 22.2 6.8 28 14 28C21.2 28 27 22.2 27 15C27 7.8 21.2 2 14 2ZM14 26.1C7.9 26.1 2.9 21.1 2.9 15C2.9 8.9 7.9 3.9 14 3.9C20.1 3.9 25.1 8.9 25.1 15C25.1 21.1 20.1 26.1 14 26.1ZM1.7 5.7L5.7 1.7C6.1 1.3 6.1 0.7 5.7 0.3C5.3 -0.1 4.7 -0.1 4.3 0.3L0.3 4.3C-0.1 4.7 -0.1 5.3 0.3 5.7C0.5 5.9 0.7 6 1 6C1.3 6 1.5 5.9 1.7 5.7ZM27.7 4.3L23.7 0.3C23.3 -0.1 22.7 -0.1 22.3 0.3C21.9 0.7 21.9 1.3 22.3 1.7L26.3 5.7C26.5 5.9 26.7 6 27 6C27.3 6 27.5 5.9 27.7 5.7C28.1 5.3 28.1 4.7 27.7 4.3Z" fill="#04A1DB"/>
<path id="Vector_2" d="M21.9 16H21.8C21.3 15.9 20.9 15.5 20.9 15C20.9 14.5 21.3 14.1 21.8 14H23C22.5 9.8 19.2 6.5 15 6V7.2C14.9 7.7 14.5 8.1 14 8.1C13.5 8.1 13.1 7.7 13 7.2V6C8.8 6.5 5.5 9.8 5 14H6.2C6.7 14.1 7.1 14.5 7.1 15C7.1 15.5 6.7 15.9 6.2 16H5C5.5 20.2 8.8 23.5 13 24V22.8C13.1 22.3 13.5 21.9 14 21.9C14.5 21.9 14.9 22.3 15 22.8V24C19.2 23.5 22.5 20.2 23 16H21.9C22 16 22 16 21.9 16ZM18 16H15V19C15 19.5 14.5 20 14 20C13.5 20 13 19.5 13 19V16H10C9.5 16 9 15.5 9 15C9 14.5 9.5 14 10 14H13V11C13 10.5 13.5 10 14 10C14.5 10 15 10.5 15 11V14H18C18.5 14 19 14.5 19 15C19 15.5 18.5 16 18 16Z" fill="#04A1DB"/>
</g>
</svg>
